<mxfile host="app.diagrams.net" agent="Mozilla/5.0 (X11; Ubuntu; Linux x86_64; rv:131.0) Gecko/20100101 Firefox/131.0" version="24.8.4">
  <diagram name="Page-1" id="lHa2zuEedojYjjSV34Tj">
    <mxGraphModel dx="1436" dy="837" grid="1" gridSize="10" guides="1" tooltips="1" connect="1" arrows="1" fold="1" page="1" pageScale="1" pageWidth="850" pageHeight="1100" math="0" shadow="0">
      <root>
        <mxCell id="0" />
        <mxCell id="1" parent="0" />
        <mxCell id="UidsrFMZIUPS9xE5paML-36" value="" style="rounded=0;whiteSpace=wrap;html=1;" vertex="1" parent="1">
          <mxGeometry width="900" height="1100" as="geometry" />
        </mxCell>
        <mxCell id="UidsrFMZIUPS9xE5paML-1" value="" style="shape=umlLifeline;perimeter=lifelinePerimeter;whiteSpace=wrap;html=1;container=1;dropTarget=0;collapsible=0;recursiveResize=0;outlineConnect=0;portConstraint=eastwest;newEdgeStyle={&quot;curved&quot;:0,&quot;rounded&quot;:0};participant=umlActor;fillColor=#dae8fc;strokeColor=#6c8ebf;" vertex="1" parent="1">
          <mxGeometry x="110" y="120" width="30" height="600" as="geometry" />
        </mxCell>
        <mxCell id="UidsrFMZIUPS9xE5paML-11" value="" style="html=1;points=[[0,0,0,0,5],[0,1,0,0,-5],[1,0,0,0,5],[1,1,0,0,-5]];perimeter=orthogonalPerimeter;outlineConnect=0;targetShapes=umlLifeline;portConstraint=eastwest;newEdgeStyle={&quot;curved&quot;:0,&quot;rounded&quot;:0};" vertex="1" parent="UidsrFMZIUPS9xE5paML-1">
          <mxGeometry x="10" y="60" width="10" height="30" as="geometry" />
        </mxCell>
        <mxCell id="UidsrFMZIUPS9xE5paML-3" value="" style="shape=umlLifeline;perimeter=lifelinePerimeter;whiteSpace=wrap;html=1;container=1;dropTarget=0;collapsible=0;recursiveResize=0;outlineConnect=0;portConstraint=eastwest;newEdgeStyle={&quot;curved&quot;:0,&quot;rounded&quot;:0};participant=umlBoundary;size=40;fillColor=#dae8fc;strokeColor=#6c8ebf;" vertex="1" parent="1">
          <mxGeometry x="350" y="120" width="50" height="600" as="geometry" />
        </mxCell>
        <mxCell id="UidsrFMZIUPS9xE5paML-4" value="" style="shape=umlLifeline;perimeter=lifelinePerimeter;whiteSpace=wrap;html=1;container=1;dropTarget=0;collapsible=0;recursiveResize=0;outlineConnect=0;portConstraint=eastwest;newEdgeStyle={&quot;curved&quot;:0,&quot;rounded&quot;:0};participant=umlControl;fillColor=#dae8fc;strokeColor=#6c8ebf;" vertex="1" parent="1">
          <mxGeometry x="560" y="120" width="40" height="600" as="geometry" />
        </mxCell>
        <mxCell id="UidsrFMZIUPS9xE5paML-5" value="" style="shape=umlLifeline;perimeter=lifelinePerimeter;whiteSpace=wrap;html=1;container=1;dropTarget=0;collapsible=0;recursiveResize=0;outlineConnect=0;portConstraint=eastwest;newEdgeStyle={&quot;curved&quot;:0,&quot;rounded&quot;:0};participant=umlEntity;fillColor=#dae8fc;strokeColor=#6c8ebf;" vertex="1" parent="1">
          <mxGeometry x="700" y="120" width="40" height="600" as="geometry" />
        </mxCell>
        <mxCell id="UidsrFMZIUPS9xE5paML-33" value="" style="html=1;points=[[0,0,0,0,5],[0,1,0,0,-5],[1,0,0,0,5],[1,1,0,0,-5]];perimeter=orthogonalPerimeter;outlineConnect=0;targetShapes=umlLifeline;portConstraint=eastwest;newEdgeStyle={&quot;curved&quot;:0,&quot;rounded&quot;:0};" vertex="1" parent="UidsrFMZIUPS9xE5paML-5">
          <mxGeometry x="15" y="170" width="10" height="190" as="geometry" />
        </mxCell>
        <mxCell id="UidsrFMZIUPS9xE5paML-6" value="&lt;font style=&quot;font-size: 16px;&quot;&gt;Job Seeker&lt;br&gt;&lt;/font&gt;" style="text;html=1;align=center;verticalAlign=middle;resizable=0;points=[];autosize=1;strokeColor=none;fillColor=none;" vertex="1" parent="1">
          <mxGeometry x="80" y="90" width="100" height="30" as="geometry" />
        </mxCell>
        <mxCell id="UidsrFMZIUPS9xE5paML-7" value="&lt;font style=&quot;font-size: 16px;&quot;&gt;FlexiRecruit System&lt;br&gt;&lt;/font&gt;" style="text;html=1;align=center;verticalAlign=middle;resizable=0;points=[];autosize=1;strokeColor=none;fillColor=none;" vertex="1" parent="1">
          <mxGeometry x="300" y="90" width="160" height="30" as="geometry" />
        </mxCell>
        <mxCell id="UidsrFMZIUPS9xE5paML-8" value="&lt;font style=&quot;font-size: 16px;&quot;&gt;Validator&lt;br&gt;&lt;/font&gt;" style="text;html=1;align=center;verticalAlign=middle;resizable=0;points=[];autosize=1;strokeColor=none;fillColor=none;" vertex="1" parent="1">
          <mxGeometry x="535" y="90" width="90" height="30" as="geometry" />
        </mxCell>
        <mxCell id="UidsrFMZIUPS9xE5paML-9" value="&lt;font style=&quot;font-size: 16px;&quot;&gt;Job Database&lt;br&gt;&lt;/font&gt;" style="text;html=1;align=center;verticalAlign=middle;resizable=0;points=[];autosize=1;strokeColor=none;fillColor=none;" vertex="1" parent="1">
          <mxGeometry x="660" y="90" width="120" height="30" as="geometry" />
        </mxCell>
        <mxCell id="UidsrFMZIUPS9xE5paML-10" value="&lt;font style=&quot;font-size: 14px;&quot;&gt;Log&#39;s In &lt;br&gt;&lt;/font&gt;" style="html=1;verticalAlign=bottom;endArrow=block;curved=0;rounded=0;" edge="1" parent="1" target="UidsrFMZIUPS9xE5paML-3">
          <mxGeometry width="80" relative="1" as="geometry">
            <mxPoint x="130" y="200" as="sourcePoint" />
            <mxPoint x="210" y="200" as="targetPoint" />
          </mxGeometry>
        </mxCell>
        <mxCell id="UidsrFMZIUPS9xE5paML-12" value="&lt;b style=&quot;font-size: 15px;&quot;&gt;alt&lt;br&gt;&lt;/b&gt;" style="shape=umlFrame;whiteSpace=wrap;html=1;pointerEvents=0;strokeWidth=2;fillColor=#bac8d3;strokeColor=#23445d;" vertex="1" parent="1">
          <mxGeometry x="90" y="230" width="690" height="410" as="geometry" />
        </mxCell>
        <mxCell id="UidsrFMZIUPS9xE5paML-13" value="&lt;b style=&quot;font-size: 14px;&quot;&gt;[ Successful Login ]&lt;br&gt;&lt;/b&gt;" style="text;html=1;align=center;verticalAlign=middle;resizable=0;points=[];autosize=1;strokeColor=none;fillColor=none;" vertex="1" parent="1">
          <mxGeometry x="150" y="240" width="160" height="30" as="geometry" />
        </mxCell>
        <mxCell id="UidsrFMZIUPS9xE5paML-15" value="&lt;font style=&quot;font-size: 14px;&quot;&gt;Validate Credentials&lt;br&gt;&lt;/font&gt;" style="html=1;verticalAlign=bottom;endArrow=block;curved=0;rounded=0;" edge="1" parent="1" target="UidsrFMZIUPS9xE5paML-32">
          <mxGeometry x="0.0024" width="80" relative="1" as="geometry">
            <mxPoint x="580" y="280" as="sourcePoint" />
            <mxPoint x="500" y="280" as="targetPoint" />
            <mxPoint as="offset" />
          </mxGeometry>
        </mxCell>
        <mxCell id="UidsrFMZIUPS9xE5paML-16" value="&lt;font style=&quot;font-size: 14px;&quot;&gt;Fetch User Details&lt;br&gt;&lt;/font&gt;" style="html=1;verticalAlign=bottom;endArrow=block;curved=0;rounded=0;" edge="1" parent="1" target="UidsrFMZIUPS9xE5paML-33">
          <mxGeometry x="-0.4109" width="80" relative="1" as="geometry">
            <mxPoint x="380" y="320" as="sourcePoint" />
            <mxPoint x="710" y="320" as="targetPoint" />
            <mxPoint as="offset" />
          </mxGeometry>
        </mxCell>
        <mxCell id="UidsrFMZIUPS9xE5paML-17" value="&lt;font style=&quot;font-size: 14px;&quot;&gt;Return User Details&lt;/font&gt;" style="html=1;verticalAlign=bottom;endArrow=open;dashed=1;endSize=8;curved=0;rounded=0;" edge="1" parent="1">
          <mxGeometry x="0.3892" relative="1" as="geometry">
            <mxPoint x="715" y="360" as="sourcePoint" />
            <mxPoint x="380" y="360" as="targetPoint" />
            <mxPoint as="offset" />
          </mxGeometry>
        </mxCell>
        <mxCell id="UidsrFMZIUPS9xE5paML-19" value="&lt;font style=&quot;font-size: 14px;&quot;&gt;Initiates Job Search&lt;br&gt;&lt;/font&gt;" style="html=1;verticalAlign=bottom;endArrow=block;curved=0;rounded=0;" edge="1" parent="1" target="UidsrFMZIUPS9xE5paML-32">
          <mxGeometry width="80" relative="1" as="geometry">
            <mxPoint x="130" y="400" as="sourcePoint" />
            <mxPoint x="210" y="400" as="targetPoint" />
          </mxGeometry>
        </mxCell>
        <mxCell id="UidsrFMZIUPS9xE5paML-20" value="&lt;font style=&quot;font-size: 14px;&quot;&gt;Query Job Listings&lt;br&gt;&lt;/font&gt;" style="html=1;verticalAlign=bottom;endArrow=block;curved=0;rounded=0;" edge="1" parent="1" target="UidsrFMZIUPS9xE5paML-33">
          <mxGeometry x="-0.352" width="80" relative="1" as="geometry">
            <mxPoint x="380" y="419.6" as="sourcePoint" />
            <mxPoint x="710" y="420" as="targetPoint" />
            <mxPoint as="offset" />
          </mxGeometry>
        </mxCell>
        <mxCell id="UidsrFMZIUPS9xE5paML-21" value="&lt;font style=&quot;font-size: 14px;&quot;&gt;Return&#39;s Matching Job Listings&lt;br&gt;&lt;/font&gt;" style="html=1;verticalAlign=bottom;endArrow=open;dashed=1;endSize=8;curved=0;rounded=0;" edge="1" parent="1" source="UidsrFMZIUPS9xE5paML-33" target="UidsrFMZIUPS9xE5paML-32">
          <mxGeometry x="0.3322" relative="1" as="geometry">
            <mxPoint x="710" y="460" as="sourcePoint" />
            <mxPoint x="640" y="460" as="targetPoint" />
            <Array as="points">
              <mxPoint x="660" y="460" />
            </Array>
            <mxPoint as="offset" />
          </mxGeometry>
        </mxCell>
        <mxCell id="UidsrFMZIUPS9xE5paML-22" value="&lt;font style=&quot;font-size: 14px;&quot;&gt;Display Job Listings&lt;br&gt;&lt;/font&gt;" style="html=1;verticalAlign=bottom;endArrow=block;curved=0;rounded=0;" edge="1" parent="1" target="UidsrFMZIUPS9xE5paML-31">
          <mxGeometry width="80" relative="1" as="geometry">
            <mxPoint x="370" y="480" as="sourcePoint" />
            <mxPoint x="290" y="480" as="targetPoint" />
          </mxGeometry>
        </mxCell>
        <mxCell id="UidsrFMZIUPS9xE5paML-23" value="" style="endArrow=none;dashed=1;html=1;rounded=0;entryX=0.998;entryY=0.707;entryDx=0;entryDy=0;entryPerimeter=0;strokeWidth=2;fillColor=#bac8d3;strokeColor=#23445d;" edge="1" parent="1" target="UidsrFMZIUPS9xE5paML-12">
          <mxGeometry width="50" height="50" relative="1" as="geometry">
            <mxPoint x="90" y="520" as="sourcePoint" />
            <mxPoint x="140" y="470" as="targetPoint" />
          </mxGeometry>
        </mxCell>
        <mxCell id="UidsrFMZIUPS9xE5paML-24" value="&lt;b style=&quot;font-size: 14px;&quot;&gt;[ Failed Login ]&lt;br&gt;&lt;/b&gt;" style="text;html=1;align=center;verticalAlign=middle;resizable=0;points=[];autosize=1;strokeColor=none;fillColor=none;" vertex="1" parent="1">
          <mxGeometry x="120" y="530" width="120" height="30" as="geometry" />
        </mxCell>
        <mxCell id="UidsrFMZIUPS9xE5paML-26" value="&lt;font style=&quot;font-size: 13px;&quot;&gt;Error Message ( Invalid Credentials )&lt;br&gt;&lt;/font&gt;" style="html=1;verticalAlign=bottom;endArrow=block;curved=0;rounded=0;" edge="1" parent="1">
          <mxGeometry width="80" relative="1" as="geometry">
            <mxPoint x="374.5" y="600" as="sourcePoint" />
            <mxPoint x="130" y="600" as="targetPoint" />
          </mxGeometry>
        </mxCell>
        <mxCell id="UidsrFMZIUPS9xE5paML-27" value="" style="shape=umlDestroy;whiteSpace=wrap;html=1;strokeWidth=3;targetShapes=umlLifeline;" vertex="1" parent="1">
          <mxGeometry x="110" y="720" width="30" height="30" as="geometry" />
        </mxCell>
        <mxCell id="UidsrFMZIUPS9xE5paML-28" value="" style="shape=umlDestroy;whiteSpace=wrap;html=1;strokeWidth=3;targetShapes=umlLifeline;" vertex="1" parent="1">
          <mxGeometry x="360" y="720" width="30" height="30" as="geometry" />
        </mxCell>
        <mxCell id="UidsrFMZIUPS9xE5paML-29" value="" style="shape=umlDestroy;whiteSpace=wrap;html=1;strokeWidth=3;targetShapes=umlLifeline;" vertex="1" parent="1">
          <mxGeometry x="565" y="720" width="30" height="30" as="geometry" />
        </mxCell>
        <mxCell id="UidsrFMZIUPS9xE5paML-30" value="" style="shape=umlDestroy;whiteSpace=wrap;html=1;strokeWidth=3;targetShapes=umlLifeline;" vertex="1" parent="1">
          <mxGeometry x="705" y="720" width="30" height="30" as="geometry" />
        </mxCell>
        <mxCell id="UidsrFMZIUPS9xE5paML-31" value="" style="html=1;points=[[0,0,0,0,5],[0,1,0,0,-5],[1,0,0,0,5],[1,1,0,0,-5]];perimeter=orthogonalPerimeter;outlineConnect=0;targetShapes=umlLifeline;portConstraint=eastwest;newEdgeStyle={&quot;curved&quot;:0,&quot;rounded&quot;:0};" vertex="1" parent="1">
          <mxGeometry x="120" y="370" width="10" height="130" as="geometry" />
        </mxCell>
        <mxCell id="UidsrFMZIUPS9xE5paML-32" value="" style="html=1;points=[[0,0,0,0,5],[0,1,0,0,-5],[1,0,0,0,5],[1,1,0,0,-5]];perimeter=orthogonalPerimeter;outlineConnect=0;targetShapes=umlLifeline;portConstraint=eastwest;newEdgeStyle={&quot;curved&quot;:0,&quot;rounded&quot;:0};" vertex="1" parent="1">
          <mxGeometry x="370" y="260" width="10" height="240" as="geometry" />
        </mxCell>
        <mxCell id="UidsrFMZIUPS9xE5paML-34" value="" style="html=1;points=[[0,0,0,0,5],[0,1,0,0,-5],[1,0,0,0,5],[1,1,0,0,-5]];perimeter=orthogonalPerimeter;outlineConnect=0;targetShapes=umlLifeline;portConstraint=eastwest;newEdgeStyle={&quot;curved&quot;:0,&quot;rounded&quot;:0};" vertex="1" parent="1">
          <mxGeometry x="120" y="560" width="10" height="50" as="geometry" />
        </mxCell>
      </root>
    </mxGraphModel>
  </diagram>
</mxfile>
